<?xml version="1.0" encoding="UTF-8" standalone="no"?><!DOCTYPE svg PUBLIC "-//W3C//DTD SVG 1.1//EN" "http://www.w3.org/Graphics/SVG/1.1/DTD/svg11.dtd"><svg width="100%" height="100%" viewBox="0 0 840 333" version="1.1" xmlns="http://www.w3.org/2000/svg" xmlns:xlink="http://www.w3.org/1999/xlink" xml:space="preserve" xmlns:serif="http://www.serif.com/" style="fill-rule:evenodd;clip-rule:evenodd;stroke-linejoin:round;stroke-miterlimit:2;"><path d="M231.354,62.112c1.194,-3.073 1.118,-6.494 -0.211,-9.51c-1.328,-3.017 -3.801,-5.382 -6.874,-6.575c-3.072,-1.194 -6.493,-1.118 -9.509,0.211c-3.017,1.329 -5.382,3.801 -6.576,6.874c-5.364,13.599 -8.138,28.081 -8.18,42.7c0.078,14.764 2.836,29.391 8.14,43.17c1.161,3.083 3.498,5.579 6.499,6.939c3,1.359 6.418,1.471 9.501,0.311c3.084,-1.161 5.579,-3.498 6.939,-6.499c1.36,-3 1.472,-6.418 0.311,-9.501c-8.77,-23.3 -8.78,-45.59 -0.04,-68.12Zm-44.56,85c-16.26,-34.57 -16.27,-67.93 0,-102c1.701,-3.575 1.996,-7.658 0.825,-11.44c-1.17,-3.781 -3.72,-6.984 -7.143,-8.973c-3.423,-1.988 -7.468,-2.616 -11.333,-1.76c-3.865,0.856 -7.266,3.135 -9.529,6.383c-0.493,0.698 -0.925,1.437 -1.29,2.21c-10.15,21.29 -15.22,42.79 -15.22,64.35c0,21.56 5.06,43.14 15.18,64.65c0.372,0.802 0.818,1.569 1.33,2.29c2.267,3.217 5.655,5.47 9.499,6.316c3.844,0.845 7.865,0.222 11.272,-1.747c3.408,-1.97 5.955,-5.143 7.141,-8.896c1.186,-3.753 0.925,-7.813 -0.732,-11.383Zm-162.7,47.13c-1.16,-3.09 -3.5,-5.592 -6.505,-6.957c-3.006,-1.364 -6.43,-1.479 -9.52,-0.318c-3.089,1.16 -5.592,3.5 -6.956,6.506c-1.364,3.005 -1.479,6.429 -0.319,9.519c8.77,23.3 8.79,45.59 0.05,68.13c-0.591,1.521 -0.876,3.144 -0.84,4.776c0.036,1.631 0.394,3.24 1.052,4.734c1.328,3.016 3.801,5.381 6.873,6.575c3.073,1.193 6.494,1.117 9.51,-0.211c3.017,-1.329 5.382,-3.802 6.575,-6.874c5.36,-13.601 8.134,-28.082 8.18,-42.7c-0.066,-14.765 -2.81,-29.395 -8.1,-43.18Zm51.44,-18.3c-0.49,-1.1 -1,-2.19 -1.51,-3.29c-0.883,-1.874 -2.128,-3.556 -3.661,-4.949c-1.534,-1.393 -3.327,-2.47 -5.277,-3.17c-1.95,-0.701 -4.019,-1.01 -6.088,-0.91c-2.07,0.099 -4.1,0.605 -5.974,1.489c-1.874,0.884 -3.555,2.128 -4.948,3.661c-1.393,1.534 -2.471,3.327 -3.171,5.277c-0.7,1.95 -1.009,4.019 -0.91,6.089c0.1,2.069 0.606,4.099 1.489,5.973c16.27,34.57 16.28,67.94 0,102c-0.891,1.869 -1.406,3.896 -1.514,5.964c-0.109,2.068 0.191,4.138 0.882,6.09c0.692,1.953 1.761,3.75 3.147,5.289c1.386,1.539 3.061,2.79 4.93,3.682c1.87,0.891 3.896,1.406 5.965,1.515c2.068,0.108 4.137,-0.192 6.09,-0.883c1.952,-0.692 3.749,-1.761 5.288,-3.147c1.54,-1.385 2.791,-3.061 3.682,-4.93c0.53,-1.11 1,-2.22 1.54,-3.33c9.114,-20.2 13.674,-40.534 13.68,-61c0.04,-20.5 -4.52,-41 -13.64,-61.42Z" style="fill:url(#_Linear1);fill-rule:nonzero;"/><path d="M363.004,201.002l0,1.62c-1.08,27.27 -24.57,49.42 -53.46,49.42c-13.803,-0.046 -27.091,-5.246 -37.26,-14.58c-10.141,9.377 -23.447,14.584 -37.26,14.58c-29.43,0 -53.46,-23 -53.46,-51l0,-4.77c0,-2.128 0.419,-4.234 1.234,-6.2c0.814,-1.965 2.007,-3.751 3.511,-5.255c1.505,-1.505 3.291,-2.698 5.256,-3.512c1.965,-0.814 4.072,-1.233 6.199,-1.233c2.128,0 4.234,0.419 6.2,1.233c1.965,0.814 3.751,2.007 5.256,3.512c1.504,1.504 2.697,3.29 3.511,5.255c0.814,1.966 1.233,4.072 1.233,6.2l0,4.77c0,10.27 9.45,18.64 21.06,18.64c11.61,0 21.06,-8.37 21.06,-18.64l0,-42.81c0,-4.297 1.707,-8.417 4.745,-11.455c3.038,-3.039 7.159,-4.745 11.455,-4.745c4.297,0 8.418,1.706 11.456,4.745c3.038,3.038 4.744,7.158 4.744,11.455l0,42.77c0,10.27 9.45,18.64 21.06,18.64c11.61,0 21.06,-8.37 21.06,-18.64l0,-68.31c0,-4.297 1.707,-8.417 4.745,-11.455c3.038,-3.039 7.159,-4.745 11.455,-4.745c4.297,0 8.418,1.706 11.456,4.745c3.038,3.038 4.744,7.158 4.744,11.455l0,68.31Z" style="fill-rule:nonzero;"/><path d="M517.175,131.112l0,103.38c-0.007,2.042 -0.418,4.062 -1.211,5.944c-0.792,1.882 -1.951,3.588 -3.407,5.02c-1.456,1.431 -3.182,2.559 -5.078,3.319c-1.895,0.76 -3.923,1.136 -5.964,1.107c-8.91,0 -14.31,-7 -14.31,-15.39l0,-3.24c-11.61,10 -25.11,15.93 -41.31,15.93c-17.295,0 -33.882,-6.87 -46.111,-19.1c-12.229,-12.229 -19.099,-28.815 -19.099,-46.11c0,-17.295 6.87,-33.881 19.099,-46.111c12.229,-12.229 28.816,-19.099 46.111,-19.099c16.2,0 29.7,6.21 41.31,15.66l0,-1.31c0,-8.37 5.4,-15.39 14.31,-15.39c2.041,-0.029 4.069,0.347 5.964,1.107c1.896,0.759 3.622,1.888 5.078,3.319c1.456,1.431 2.615,3.137 3.407,5.019c0.793,1.882 1.204,3.903 1.211,5.945Zm-37.53,51c-0.153,-8.886 -3.79,-17.357 -10.128,-23.587c-6.338,-6.23 -14.87,-9.721 -23.757,-9.721c-8.888,0 -17.419,3.491 -23.758,9.721c-6.338,6.23 -9.975,14.701 -10.127,23.587c0,18.63 15.39,33.48 34,33.48c8.911,0.016 17.466,-3.497 23.794,-9.771c6.328,-6.274 9.915,-14.798 9.976,-23.709Z" style="fill-rule:nonzero;"/><path d="M673.794,131.112l0,103.38c-0.006,2.042 -0.417,4.062 -1.21,5.944c-0.793,1.882 -1.951,3.588 -3.407,5.02c-1.457,1.431 -3.182,2.559 -5.078,3.319c-1.895,0.76 -3.923,1.136 -5.965,1.107c-8.91,0 -14.31,-7 -14.31,-15.39l0,-3.24c-11.61,10 -25.11,15.93 -41.31,15.93c-17.294,0 -33.881,-6.87 -46.11,-19.1c-12.229,-12.229 -19.1,-28.815 -19.1,-46.11c0,-17.295 6.871,-33.881 19.1,-46.111c12.229,-12.229 28.816,-19.099 46.11,-19.099c16.2,0 29.7,6.21 41.31,15.66l0,-1.31c0,-8.37 5.4,-15.39 14.31,-15.39c2.042,-0.029 4.07,0.347 5.965,1.107c1.896,0.759 3.621,1.888 5.078,3.319c1.456,1.431 2.614,3.137 3.407,5.019c0.793,1.882 1.204,3.903 1.21,5.945Zm-37.53,51c-0.152,-8.886 -3.789,-17.357 -10.127,-23.587c-6.338,-6.23 -14.87,-9.721 -23.758,-9.721c-8.887,0 -17.419,3.491 -23.757,9.721c-6.338,6.23 -9.975,14.701 -10.128,23.587c0,18.63 15.38,33.48 34,33.48c8.908,0.011 17.458,-3.505 23.782,-9.778c6.324,-6.273 9.908,-14.795 9.968,-23.702l0.02,0Z" style="fill-rule:nonzero;"/><path d="M839.544,183.452c-0.021,18.111 -7.224,35.475 -20.03,48.282c-12.806,12.808 -30.168,20.014 -48.28,20.038c-13.511,-0.072 -26.721,-4.006 -38.07,-11.34l0,63.18c0.054,2.179 -0.328,4.347 -1.125,6.376c-0.797,2.029 -1.991,3.878 -3.513,5.438c-1.523,1.561 -3.342,2.801 -5.35,3.647c-2.009,0.847 -4.167,1.283 -6.347,1.283c-2.179,0 -4.337,-0.436 -6.346,-1.283c-2.008,-0.846 -3.827,-2.086 -5.35,-3.647c-1.522,-1.56 -2.716,-3.409 -3.513,-5.438c-0.797,-2.029 -1.179,-4.197 -1.125,-6.376l0,-171.73c0.014,-2.146 0.452,-4.269 1.288,-6.245c0.836,-1.977 2.054,-3.769 3.584,-5.274c1.53,-1.505 3.342,-2.693 5.332,-3.496c1.99,-0.804 4.119,-1.206 6.265,-1.185c3.467,0.023 6.839,1.129 9.647,3.162c2.807,2.033 4.91,4.892 6.014,8.178c11.348,-7.826 24.824,-11.983 38.609,-11.91c18.116,0.021 35.483,7.229 48.29,20.041c12.807,12.813 20.007,30.183 20.02,48.299Zm-32.669,0c-0.004,-7.048 -2.098,-13.937 -6.017,-19.795c-3.918,-5.859 -9.486,-10.424 -15.999,-13.118c-6.512,-2.694 -13.678,-3.397 -20.59,-2.02c-6.912,1.377 -13.261,4.773 -18.243,9.759c-4.982,4.985 -8.375,11.335 -9.748,18.248c-1.374,6.913 -0.667,14.078 2.031,20.589c2.698,6.511 7.266,12.076 13.127,15.992c5.861,3.915 12.75,6.005 19.798,6.005c9.445,-0.037 18.492,-3.807 25.168,-10.487c6.676,-6.68 10.441,-15.729 10.473,-25.173Z" style="fill-rule:nonzero;"/><path d="M152.194,237.112c0,28.67 -7.39,57.34 -22.18,85.81c-2.395,4.394 -6.417,7.674 -11.203,9.136c-4.787,1.461 -9.955,0.988 -14.397,-1.318c-4.441,-2.307 -7.801,-6.262 -9.358,-11.018c-1.558,-4.756 -1.188,-9.934 1.028,-14.42c21.6,-41.58 23.63,-82.1 6.09,-123.48c-16.06,-33.06 -22.14,-57.07 -22.14,-85.71c0,-28.64 7.4,-57.34 22.19,-85.81c2.337,-4.498 6.365,-7.884 11.198,-9.412c4.832,-1.529 10.074,-1.075 14.572,1.262c4.499,2.336 7.884,6.364 9.413,11.197c1.528,4.833 1.074,10.075 -1.263,14.573c-21.6,41.58 -23.62,82.1 -6.08,123.48c15.05,33.36 22.13,57.07 22.13,85.71Z" style="fill-rule:nonzero;"/><defs><linearGradient id="_Linear1" x1="0" y1="0" x2="1" y2="0" gradientUnits="userSpaceOnUse" gradientTransform="matrix(157.231,420.804,-420.804,157.231,58.8702,45.1835)"><stop offset="0" style="stop-color:#933eff;stop-opacity:1"/><stop offset="0.43" style="stop-color:#6641ff;stop-opacity:1"/><stop offset="1" style="stop-color:#0047ff;stop-opacity:1"/></linearGradient></defs></svg>